<svg name="reMarkable_wordmark_dark" class="flex-shrink-0 align-middle" fill="currentColor" width="110" id="Layer_2" viewBox="0 0 800 122"><title>remarkable-logo</title><g id="_Group_"><path id="_Compound_Path_" d="M108.11,101.37c-15.67,0-28.36-9.56-28.36-31.18h54.68c0-19.58-12.38-36.19-36.19-36.19-21.93,0-38.86,19.58-38.86,43.56s14.1,41.21,38.07,41.21c17.86,0,31.49-9.87,37.92-31.49h-3.13c-4.23,7.99-12.69,14.1-24.13,14.1ZM97.77,41.52c8.62,0,14.41,7.36,15.04,20.99h-32.59c2.04-14.73,8.93-20.99,17.55-20.99Z"></path><path id="_Compound_Path_2" d="M64.24,36.82v-.63c-3.13-1.1-6.89-1.57-10.5-1.57-12.69,0-20.84,7.68-26.17,16.14v-17.08h-.63L0,43.4v1.1c3.29,2.82,5.64,8.93,5.64,18.17v35.72c0,8.77-1.41,14.26-3.76,16.61v1.25h30.55v-1.25c-2.35-2.04-4.86-5.33-4.86-16.61v-42.62c2.19-1.88,6.27-3.6,10.65-3.6,5.8,0,9.87,1.41,12.53,3.6h.63c2.04-6.42,7.68-14.57,12.85-18.96Z"></path><path id="_Compound_Path_3" d="M346.26,60.32c0-15.35-7.21-26.32-33.22-26.32-11.12,0-23.66,3.92-30.71,6.58v20.68h1.25c4.54-7.99,13.94-19.58,27.89-19.58,8.77,0,14.26,3.92,14.26,12.85,0,9.4-7.21,15.04-18.02,19.11-19.58,7.36-30.4,12.38-30.4,26.48,0,11.75,9.87,17.86,21.31,17.86,12.06,0,20.99-5.48,26.01-12.53v10.81h25.38v-1.25c-2.51-2.35-3.76-7.83-3.76-16.61v-38.07ZM324.64,99.8c-2.82,2.98-7.68,5.33-13.47,5.33-8.93,0-13.47-4.23-13.47-10.97s5.17-10.18,13.63-13.94c7.52-3.29,11.44-5.33,13.32-7.52v27.11Z"></path><path id="_Compound_Path_4" d="M206.35,82.26L173.76,9.71h-30.71v1.25c2.51,2.19,4.07,8.3,4.07,15.04v70.04c0,11.12-1.41,16.61-3.76,18.96v1.25h17.86v-1.25c-2.35-2.35-4.7-6.27-4.7-18.96V25.7l40.11,90.56h4.54l40.11-90.87v73.01c0,8.77-1.41,14.26-3.76,16.61v1.25h30.24v-1.25c-2.35-2.35-3.76-7.83-3.76-16.61V26.01c0-6.74,1.57-12.85,4.07-15.04v-1.25h-29.61l-32.12,72.54Z"></path><path id="_Compound_Path_5" d="M490.4,95.73l-18.64-26.64c17.39-12.22,26.32-23.03,28.67-32.75h-25.85v1.25c2.04,10.97-.47,21.93-17.7,34l-7.99,5.64V0h-.63l-26.95,9.71v1.1c3.29,2.82,5.64,8.93,5.64,18.17v69.41c0,8.77-1.41,14.26-3.76,16.61v1.25h29.46v-1.25c-2.51-2.35-3.76-7.83-3.76-16.61v-14.26l6.42-4.07,12.38,19.27c5.33,8.3,6.58,13.63,4.54,15.67v1.25h34.63v-1.25c-3.45-.78-10.03-10.03-16.45-19.27Z"></path><path id="_Compound_Path_6" d="M711.79,0h-.63l-26.95,9.71v1.1c3.29,2.82,5.64,8.93,5.64,18.17v69.41c0,8.77-1.41,14.26-3.76,16.61v1.25h29.46v-1.25c-2.51-2.35-3.76-7.83-3.76-16.61V0Z"></path><path id="_Compound_Path_7" d="M796.87,87.27c-4.23,7.99-12.69,14.1-24.13,14.1-15.67,0-28.36-9.56-28.36-31.18h54.68c0-19.58-12.38-36.19-36.19-36.19-21.93,0-38.86,19.58-38.86,43.56s14.1,41.21,38.07,41.21c17.86,0,31.49-9.87,37.92-31.49h-3.13ZM762.4,41.52c8.62,0,14.41,7.36,15.04,20.99h-32.59c2.04-14.73,8.93-20.99,17.55-20.99Z"></path><path id="_Compound_Path_8" d="M387.15,51.23v-17.55h-.63l-26.95,9.71v1.1c3.29,2.82,5.64,8.93,5.64,18.17v35.72c0,8.77-1.41,14.26-3.76,16.61v1.25h31.02v-1.25c-2.66-2.04-5.33-5.8-5.33-16.61v-41.68c3.29-3.13,8.3-4.86,14.73-4.86,5.33,0,10.34.94,14.1,2.82h1.25v-19.58c-1.41-.31-3.45-.47-5.64-.47-10.81,0-19.43,7.52-24.44,16.61Z"></path><path id="_Compound_Path_9" d="M577.2,60.32c0-15.35-7.21-26.32-33.22-26.32-11.12,0-23.66,3.92-30.71,6.58v20.68h1.25c4.54-7.99,13.94-19.58,27.89-19.58,8.77,0,14.26,3.92,14.26,12.85,0,9.4-7.21,15.04-18.02,19.11-19.58,7.36-30.4,12.38-30.4,26.48,0,11.75,9.87,17.86,21.31,17.86,12.06,0,20.99-5.48,26.01-12.53v10.81h25.38v-1.25c-2.51-2.35-3.76-7.83-3.76-16.61v-38.07ZM555.58,99.8c-2.82,2.98-7.68,5.33-13.47,5.33-8.93,0-13.47-4.23-13.47-10.97s5.17-10.18,13.63-13.94c7.52-3.29,11.44-5.33,13.32-7.52v27.11Z"></path><path id="_Compound_Path_10" d="M644.1,34.78c-11.59,0-21.46,5.48-27.73,13.79V0h-.63l-26.95,9.71v1.1c3.29,2.82,5.64,8.93,5.64,18.17v88.68h1.25l11.91-7.83c6.11,5.17,15.98,8.93,26.32,8.93,30.24,0,43.71-23.97,43.71-44.18,0-25.54-14.41-39.8-33.53-39.8ZM634.86,111.24c-10.65,0-18.49-7.05-18.49-21.62v-35.1c3.45-4.07,9.24-6.11,15.35-6.11,12.53,0,22.56,9.56,22.56,31.18,0,16.45-5.8,31.65-19.43,31.65Z"></path></g></svg>
